<?xml version="1.0" encoding="utf-8"?>
<!-- Generator: Adobe Illustrator 16.0.3, SVG Export Plug-In . SVG Version: 6.00 Build 0)  -->
<!DOCTYPE svg PUBLIC "-//W3C//DTD SVG 1.1//EN" "http://www.w3.org/Graphics/SVG/1.1/DTD/svg11.dtd">
<svg version="1.1" id="Laag_1" xmlns="http://www.w3.org/2000/svg" xmlns:xlink="http://www.w3.org/1999/xlink" x="0px" y="0px"
	 width="194px" height="194px" viewBox="0 0 194 194" enable-background="new 0 0 194 194" xml:space="preserve">
<rect x="-6.277" fill="#1F1F1F" width="200.277" height="194"/>
<polygon fill="#36AA87" points="194,97 183,164 194,194 "/>
<polygon fill="#35A986" points="181,173 179,177 194,194 "/>
<polygon fill="#31A986" points="179,177 174,184 194,194 "/>
<polygon fill="#319E7E" points="0,0 0,97 8,46 "/>
<polygon fill="#3C5359" points="107.254,114.172 100.07,125.801 107.352,133.687 "/>
<polygon fill="#2CA280" points="174,184 173,194 194,194 "/>
<polygon fill="#2FA17F" points="8,46 38,71 44,31 "/>
<polygon fill="#33A080" points="24,189 0,194 24,194 "/>
<polygon fill="#31A582" points="0,97 -2.277,164 16,152 "/>
<polygon fill="#38A585" points="183,164 181,173 194,194 "/>
<polygon fill="#30A280" points="16,152 32,176 37,157 "/>
<polygon fill="#2FA281" points="0,97 16,152 26,130 "/>
<polygon fill="#32A584" points="-2.277,164 0,194 24,189 "/>
<polygon fill="#36A481" points="180,167 181,173 183,164 "/>
<polygon fill="#2B9777" points="0,0 8,46 29,24 "/>
<polygon fill="#2FA380" points="-2.277,164 24,189 27,181 "/>
<polygon fill="#329F7F" points="29,24 8,46 44,31 "/>
<polygon fill="#8DA09C" points="51.52,166.105 50.766,172.621 54.723,178.422 "/>
<polygon fill="#2EA27F" points="-2.277,164 27,181 32,176 "/>
<polygon fill="#32A683" points="16,152 -2.277,164 32,176 "/>
<polygon fill="#35A986" points="44,31 38,71 56,67 "/>
<polygon fill="#B5E2E5" points="27,181 24,189 36,180 "/>
<polygon fill="#95C8C1" points="32,176 27,181 36,180 "/>
<polygon fill="#486E81" points="73.09,166.359 54.723,178.422 73.238,181.789 "/>
<polygon fill="#48677B" points="32,176 50.766,172.621 51.52,166.105 "/>
<polygon fill="#B4CCD6" points="36,180 24,189 40,194 "/>
<polygon fill="#2FA17F" points="8,46 0,97 38,71 "/>
<polygon fill="#2EA482" points="26,130 16,152 39,151 "/>
<polygon fill="#30A684" points="16,152 37,157 39,151 "/>
<polygon fill="#A4B7BD" points="36,180 40,194 49.031,181.887 "/>
<polygon fill="#92ABB0" points="24,189 24,194 40,194 "/>
<polygon fill="#AFC8DE" points="50.785,138.066 49.965,143.187 55.406,137.812 "/>
<polygon fill="#8AA2AE" points="52.82,151.484 50.617,155.691 55.883,151.473 "/>
<polygon fill="#2FAB86" points="26,130 39,151 45.086,145.98 "/>
<polygon fill="#6C8DA0" points="73.09,166.359 80.406,174.723 80.535,173.43 "/>
<polygon fill="#567788" points="45.086,145.98 50.617,155.691 52.82,151.484 "/>
<polygon fill="#7E9BAB" points="49.965,143.187 45.086,145.98 52.82,151.484 "/>
<polygon fill="#B2C4C4" points="36,180 49.031,181.887 50.766,172.621 "/>
<polygon fill="#5E7E8D" points="54.723,178.422 56,182 73.238,181.789 "/>
<polygon fill="#607C7F" points="45.086,145.98 39,151 50.617,155.691 "/>
<polygon fill="#9EB6C2" points="39,151 37,157 50.617,155.691 "/>
<polygon fill="#B3D2D7" points="32,176 36,180 50.766,172.621 "/>
<polygon fill="#2A9777" points="29,24 44,31 52,7 "/>
<polygon fill="#8DAEB3" points="45.086,145.98 49.965,143.187 50.785,138.066 "/>
<polygon fill="#37AD8A" points="26,130 45.086,145.98 50.785,138.066 "/>
<polygon fill="#71898D" points="50.617,155.691 37,157 51.52,166.105 "/>
<polygon fill="#6B8896" points="50.766,172.621 49.031,181.887 54.723,178.422 "/>
<polygon fill="#677582" points="37,157 32,176 51.52,166.105 "/>
<polygon fill="#2C9878" points="0,0 29,24 52,7 "/>
<polygon fill="#6E8889" points="56,182 49.031,181.887 56,190 "/>
<polygon fill="#748FA2" points="49.031,181.887 40,194 53,193 "/>
<polygon fill="#BCD6E5" points="68.266,143.965 66.246,156.312 78,144 "/>
<polygon fill="#289474" points="97,0 169,10 194,0 "/>
<polygon fill="#2FA885" points="26,130 50.785,138.066 58,104 "/>
<polygon fill="#FACCAA" points="74,43 72,48 75.41,46.328 "/>
<polygon fill="#CCBB9D" points="68.582,41.465 70,55 72,48 "/>
<polygon fill="#62879A" points="64,125 55.406,137.812 65.922,133.578 "/>
<polygon fill="#96B8C4" points="49.965,143.187 52.82,151.484 55.883,151.473 "/>
<polygon fill="#8EB3CE" points="55.406,137.812 49.965,143.187 55.883,151.473 "/>
<polygon fill="#9AB5BE" points="65.922,133.578 55.406,137.812 68.266,143.965 "/>
<polygon fill="#405F73" points="54.723,178.422 49.031,181.887 56,182 "/>
<polygon fill="#33A685" points="38,71 0,97 58,104 "/>
<polygon fill="#DBEDED" points="49.031,181.887 53,193 56,190 "/>
<polygon fill="#2EA481" points="0,97 26,130 58,104 "/>
<polygon fill="#2FA583" points="56,67 38,71 58,104 "/>
<polygon fill="#A0C0CD" points="55.406,137.812 55.883,151.473 68.266,143.965 "/>
<polygon fill="#D2E0E0" points="56,182 73,187 73.238,181.789 "/>
<polygon fill="#BED9E4" points="50.785,138.066 55.406,137.812 64,125 "/>
<polygon fill="#32AA86" points="58,104 50.785,138.066 64,125 "/>
<polygon fill="#88A2AF" points="50.617,155.691 51.52,166.105 66.246,156.312 "/>
<polygon fill="#5F889E" points="55.883,151.473 50.617,155.691 66.246,156.312 "/>
<polygon fill="#3CAB8A" points="79.969,97.441 83,95 83,88 "/>
<polygon fill="#2B9D7B" points="52,7 44,31 68,32 "/>
<polygon fill="#AECAE0" points="55.883,151.473 66.246,156.312 68.266,143.965 "/>
<polygon fill="#30A281" points="52,7 68,32 72,18 "/>
<polygon fill="#31A582" points="68,32 44,31 68.582,41.465 "/>
<polygon fill="#31A582" points="44,31 56,67 68.582,41.465 "/>
<polygon fill="#5A728C" points="77.133,164.254 73.09,166.359 80.535,173.43 "/>
<polygon fill="#7E9492" points="56,190 53,193 73,187 "/>
<polygon fill="#B38065" points="88,41 84,41 89,44 "/>
<polygon fill="#9D523B" points="68.762,62.695 75.914,68.785 76.195,67.715 "/>
<polygon fill="#AB785B" points="74,78 77,85 81,80 "/>
<polygon fill="#648598" points="65.922,133.578 68.266,143.965 69.539,135.918 "/>
<polygon fill="#E3F3FF" points="64,125 65.922,133.578 73,123 "/>
<polygon fill="#34A885" points="68.582,41.465 56,67 70,55 "/>
<polygon fill="#2EA68A" points="56,67 68.762,62.695 70,55 "/>
<polygon fill="#718E94" points="56,182 56,190 73,187 "/>
<polygon fill="#F3B397" points="72,48 73.898,56.602 75.41,46.328 "/>
<polygon fill="#38B08C" points="58,104 64,125 73,123 "/>
<polygon fill="#CB9072" points="68,32 68.582,41.465 75,33 "/>
<polygon fill="#BBDAEE" points="69.539,135.918 68.266,143.965 73.195,135.652 "/>
<polygon fill="#61727A" points="51.52,166.105 54.723,178.422 73.09,166.359 "/>
<polygon fill="#7E91A0" points="66.246,156.312 51.52,166.105 73.09,166.359 "/>
<polygon fill="#D99473" points="68.762,62.695 76.195,67.715 78,58 "/>
<polygon fill="#9D7051" points="84,41 88,41 90.93,37.168 "/>
<polygon fill="#93AEC1" points="65.922,133.578 69.539,135.918 73.195,135.652 "/>
<polygon fill="#ADC8D9" points="73,123 65.922,133.578 73.195,135.652 "/>
<polygon fill="#7E6345" points="86,96 87,102 90,98 "/>
<polygon fill="#E9AE90" points="74,43 75.41,46.328 77,39 "/>
<polygon fill="#724A30" points="70,55 68.762,62.695 73.898,56.602 "/>
<polygon fill="#9F5643" points="72,48 70,55 73.898,56.602 "/>
<polygon fill="#31AD88" points="56,67 58,104 74,78 "/>
<polygon fill="#37AD8A" points="68.762,62.695 56,67 74,78 "/>
<polygon fill="#4E697A" points="66.246,156.312 73.09,166.359 75.023,164.012 "/>
<polygon fill="#956950" points="68.582,41.465 72,48 74,43 "/>
<polygon fill="#E4B192" points="72,18 68,32 75,33 "/>
<polygon fill="#8C4D2C" points="112,52 102,52 113,58 "/>
<polygon fill="#6C5A4E" points="104,102 92,112 107.254,114.172 "/>
<polygon fill="#BE8260" points="75,33 68.582,41.465 77,39 "/>
<polygon fill="#754726" points="86,31 84,41 90.93,37.168 "/>
<polygon fill="#D6A07E" points="68.582,41.465 74,43 77,39 "/>
<polygon fill="#925D4F" points="68.762,62.695 74,78 75.914,68.785 "/>
<polygon fill="#38A787" points="83,100 79.969,97.441 84,112 "/>
<polygon fill="#34A883" points="74,78 58,104 77,85 "/>
<polygon fill="#539F79" points="77,85 79.969,97.441 83,88 "/>
<polygon fill="#774A37" points="81,80 77,85 83,88 "/>
<polygon fill="#562504" points="77,39 84,41 86,31 "/>
<polygon fill="#6A81A3" points="75.023,164.012 73.09,166.359 77.133,164.254 "/>
<polygon fill="#38B08C" points="77,85 58,104 79.969,97.441 "/>
<polygon fill="#7998AA" points="73.195,135.652 68.266,143.965 78,144 "/>
<polygon fill="#2D9C7C" points="52,7 72,18 81,8 "/>
<polygon fill="#9A5337" points="75.914,68.785 74,78 78,72 "/>
<polygon fill="#875740" points="88,41 89,44 90.93,37.168 "/>
<polygon fill="#8D512F" points="75,33 77,39 86,31 "/>
<polygon fill="#8F5935" points="73.898,56.602 68.762,62.695 78,58 "/>
<polygon fill="#CB7B64" points="76.195,67.715 75.914,68.785 78,72 "/>
<polygon fill="#D1EAEF" points="85,151 77.133,164.254 91.355,162.953 "/>
<polygon fill="#31B28B" points="58,104 73,123 79,119 "/>
<polygon fill="#DFD1B6" points="81,8 72,18 83,18 "/>
<polygon fill="#8FA3A1" points="92.902,149.98 91.355,162.953 94.938,150.395 "/>
<polygon fill="#E9B38D" points="72,18 75,33 83,18 "/>
<polygon fill="#899395" points="73.09,166.359 73.238,181.789 80.406,174.723 "/>
<polygon fill="#70848B" points="77.133,164.254 80.535,173.43 91.355,162.953 "/>
<polygon fill="#DC9D7C" points="77,39 75.41,46.328 84,41 "/>
<polygon fill="#8C492E" points="102,52 109.891,66.254 113,58 "/>
<polygon fill="#718191" points="90.035,119.293 93.125,136.102 100.07,125.801 "/>
<polygon fill="#4B7A8C" points="80.406,174.723 73.238,181.789 83,189 "/>
<polygon fill="#E99F82" points="75.41,46.328 73.898,56.602 81,54 "/>
<polygon fill="#9A4F30" points="73.898,56.602 78,58 81,54 "/>
<polygon fill="#C08460" points="78,72 74,78 82.609,75.77 "/>
<polygon fill="#DA9A76" points="74,78 81,80 82.609,75.77 "/>
<polygon fill="#F0C4AB" points="83,18 75,33 86,31 "/>
<polygon fill="#87A0B6" points="73.238,181.789 73,187 83,189 "/>
<polygon fill="#976A41" points="94,70 82.609,75.77 96,83 "/>
<polygon fill="#40626E" points="73,187 53,193 83,189 "/>
<polygon fill="#969A9D" points="87,114 84,124 90.035,119.293 "/>
<polygon fill="#F4E9E5" points="81,8 83,18 94,6 "/>
<polygon fill="#35B18F" points="79.969,97.441 83,100 83,95 "/>
<polygon fill="#B3D1DC" points="79,119 73,123 84,124 "/>
<polygon fill="#D28D6C" points="93,27 90.93,37.168 99,34 "/>
<polygon fill="#EEB798" points="89,44 86.465,51.187 91,55 "/>
<polygon fill="#B0C3D1" points="84,124 73.195,135.652 86,140 "/>
<polygon fill="#C3E0EE" points="73,123 73.195,135.652 84,124 "/>
<polygon fill="#3BAD8B" points="58,104 79,119 84,112 "/>
<polygon fill="#35AD89" points="79.969,97.441 58,104 84,112 "/>
<polygon fill="#7B8994" points="78,144 66.246,156.312 85,151 "/>
<polygon fill="#839FB4" points="66.246,156.312 75.023,164.012 85,151 "/>
<polygon fill="#8DA9BE" points="75.023,164.012 77.133,164.254 85,151 "/>
<polygon fill="#599D78" points="83,95 83,100 86,96 "/>
<polygon fill="#30373D" points="92,112 90.035,119.293 100.07,125.801 "/>
<polygon fill="#615C3E" points="83,88 86,96 87,87 "/>
<polygon fill="#66997A" points="83,88 83,95 86,96 "/>
<polygon fill="#FFC8A7" points="84,41 75.41,46.328 86.465,51.187 "/>
<polygon fill="#6C888C" points="78,144 85,151 86,140 "/>
<polygon fill="#88A0AC" points="73.195,135.652 78,144 86,140 "/>
<polygon fill="#E9A888" points="75.41,46.328 81,54 86.465,51.187 "/>
<polygon fill="#D39C7E" points="84,41 86.465,51.187 89,44 "/>
<polygon fill="#617375" points="99.379,174.859 90.813,177 105,190 "/>
<polygon fill="#6D422F" points="81,80 83,88 87,87 "/>
<polygon fill="#AC7E5D" points="82.609,75.77 81,80 87,87 "/>
<polygon fill="#694022" points="82.609,75.77 87,87 96,83 "/>
<polygon fill="#4B856C" points="83,100 84,112 87,102 "/>
<polygon fill="#6A8D6C" points="86,96 83,100 87,102 "/>
<polygon fill="#A7C6CB" points="79,119 84,124 87,114 "/>
<polygon fill="#6FA8A1" points="84,112 79,119 87,114 "/>
<polygon fill="#856347" points="87,87 86,96 90,98 "/>
<polygon fill="#36A884" points="176,143 177,150 183,164 "/>
<polygon fill="#37AB88" points="171,80 178,113 194,97 "/>
<polygon fill="#CCCDD1" points="80.406,174.723 83,189 90.813,177 "/>
<polygon fill="#874724" points="78,58 76.195,67.715 94,70 "/>
<polygon fill="#EDB795" points="86.465,51.187 81,54 91,55 "/>
<polygon fill="#E9AD8B" points="81,54 78,58 91,55 "/>
<polygon fill="#86929E" points="80.535,173.43 80.406,174.723 90.813,177 "/>
<polygon fill="#778B8C" points="90.813,177 83,189 97,194 "/>
<polygon fill="#CF967B" points="86,31 90.93,37.168 93,27 "/>
<polygon fill="#E5CFC4" points="94,6 83,18 95.664,17.949 "/>
<polygon fill="#668A96" points="83,189 53,193 97,194 "/>
<polygon fill="#80949D" points="84,124 86,140 93.125,136.102 "/>
<polygon fill="#905C44" points="90,98 87,102 92,112 "/>
<polygon fill="#16191E" points="87,114 90.035,119.293 92,112 "/>
<polygon fill="#4C3935" points="87,102 84,112 92,112 "/>
<polygon fill="#515058" points="84,112 87,114 92,112 "/>
<polygon fill="#8DA1A8" points="86,140 85,151 92.902,149.98 "/>
<polygon fill="#ADBBBB" points="85,151 91.355,162.953 92.902,149.98 "/>
<polygon fill="#ECC5A6" points="83,18 86,31 93,27 "/>
<polygon fill="#7C868F" points="86,140 92.902,149.98 93.125,136.102 "/>
<polygon fill="#8D9FA3" points="90.035,119.293 84,124 93.125,136.102 "/>
<polygon fill="#ECBAA3" points="83,18 93,27 95.664,17.949 "/>
<polygon fill="#C88A65" points="76.195,67.715 78,72 94,70 "/>
<polygon fill="#BD8457" points="78,72 82.609,75.77 94,70 "/>
<polygon fill="#2D9F7D" points="164,57 171,80 194,97 "/>
<polygon fill="#6A4729" points="87,87 90,98 96,83 "/>
<polygon fill="#2D9A7A" points="0,0 52,7 97,0 "/>
<polygon fill="#E7AB89" points="91,55 78,58 94,58 "/>
<polygon fill="#D2926E" points="78,58 94,70 94,58 "/>
<polygon fill="#875135" points="90.93,37.168 89,44 99,34 "/>
<polygon fill="#A4B2B5" points="91.355,162.953 80.535,173.43 94.969,169.844 "/>
<polygon fill="#85A2A8" points="80.535,173.43 90.813,177 94.969,169.844 "/>
<polygon fill="#3C9F80" points="81,8 94,6 97,0 "/>
<polygon fill="#A77552" points="106,32 112,47 116,39 "/>
<polygon fill="#914825" points="112,47 118,51 120,45 "/>
<polygon fill="#683516" points="96,83 102.117,94.871 105,79 "/>
<polygon fill="#D7E6E1" points="90.813,177 97,194 105,190 "/>
<polygon fill="#955B36" points="102,52 112,52 112,47 "/>
<polygon fill="#1C946E" points="52,7 81,8 97,0 "/>
<polygon fill="#E4BE9A" points="107,9 105.215,11.848 108,19 "/>
<polygon fill="#7F5139" points="102.117,94.871 90,98 104,102 "/>
<polygon fill="#8C593A" points="90,98 92,112 104,102 "/>
<polygon fill="#D4F0E1" points="94,6 105.215,11.848 107,9 "/>
<polygon fill="#4B6681" points="92.902,149.98 94.938,150.395 99.133,141.34 "/>
<polygon fill="#6B8489" points="93.125,136.102 92.902,149.98 99.133,141.34 "/>
<polygon fill="#6B7D87" points="94.969,169.844 90.813,177 99.379,174.859 "/>
<polygon fill="#3E937C" points="97,0 94,6 107,9 "/>
<polygon fill="#7B4225" points="94,70 96,83 105,79 "/>
<polygon fill="#D39274" points="89,44 91,55 102,52 "/>
<polygon fill="#C68162" points="91,55 94,58 102,52 "/>
<polygon fill="#EAB291" points="99,34 89,44 102,52 "/>
<polygon fill="#6C391C" points="96,83 90,98 102.117,94.871 "/>
<polygon fill="#6E8188" points="94.938,150.395 91.355,162.953 104.992,161.754 "/>
<polygon fill="#95A9B4" points="91.355,162.953 94.969,169.844 104.992,161.754 "/>
<polygon fill="#9B5937" points="120,80 105,79 121,85 "/>
<polygon fill="#60777D" points="94.969,169.844 99.379,174.859 104.992,161.754 "/>
<polygon fill="#C68662" points="106,32 99,34 112,47 "/>
<polygon fill="#D6906E" points="118,51 113,58 118,59 "/>
<polygon fill="#874924" points="121.953,33.809 120,45 126,34 "/>
<polygon fill="#A8C1C8" points="107.352,133.687 115.82,143.645 116.875,141.648 "/>
<polygon fill="#F3D8C3" points="94,6 95.664,17.949 105.215,11.848 "/>
<polygon fill="#A74528" points="120,45 121.594,47.719 126,34 "/>
<polygon fill="#D59A72" points="95.664,17.949 106,28 108,19 "/>
<polygon fill="#D99F77" points="105.215,11.848 95.664,17.949 108,19 "/>
<polygon fill="#E1F7F5" points="99.133,141.34 94.938,150.395 112.816,150.723 "/>
<polygon fill="#D39268" points="95.664,17.949 93,27 106,28 "/>
<polygon fill="#CC8B63" points="93,27 99,34 106,28 "/>
<polygon fill="#C2835A" points="99,34 106,32 106,28 "/>
<polygon fill="#CB8262" points="116,39 112,47 120,45 "/>
<polygon fill="#84482E" points="94,70 105,79 108.227,67.73 "/>
<polygon fill="#757D80" points="92,112 100.07,125.801 107.254,114.172 "/>
<polygon fill="#456979" points="93.125,136.102 99.133,141.34 107.352,133.687 "/>
<polygon fill="#819FA7" points="100.07,125.801 93.125,136.102 107.352,133.687 "/>
<polygon fill="#A56645" points="94,58 94,70 108.227,67.73 "/>
<polygon fill="#A36443" points="102,52 94,58 108.227,67.73 "/>
<polygon fill="#884C28" points="102,52 108.227,67.73 109.891,66.254 "/>
<polygon fill="#576E80" points="99.379,174.859 105,190 110.355,174.164 "/>
<polygon fill="#8598A6" points="117,182 123,192 130,188 "/>
<polygon fill="#C3815F" points="99,34 102,52 112,47 "/>
<polygon fill="#975439" points="105,79 110,93 121,85 "/>
<polygon fill="#85532E" points="102.117,94.871 104,102 110,93 "/>
<polygon fill="#784122" points="105,79 102.117,94.871 110,93 "/>
<polygon fill="#819EAE" points="104.992,161.754 99.379,174.859 110.355,174.164 "/>
<polygon fill="#85A0AB" points="94.938,150.395 104.992,161.754 112.816,150.723 "/>
<polygon fill="#829BA0" points="99.133,141.34 112.816,150.723 115.82,143.645 "/>
<polygon fill="#555F60" points="110.355,174.164 117,182 118,170 "/>
<polygon fill="#976542" points="110,93 114,95 121,85 "/>
<polygon fill="#B87852" points="116,39 120,45 121.953,33.809 "/>
<polygon fill="#965F41" points="110,93 104,102 114,95 "/>
<polygon fill="#758D99" points="118,170 117,182 130,188 "/>
<polygon fill="#98ADAE" points="107.352,133.687 99.133,141.34 115.82,143.645 "/>
<polygon fill="#8A4825" points="118,59 109.891,66.254 118,73 "/>
<polygon fill="#677B82" points="114,95 119.172,109.02 122,99 "/>
<polygon fill="#B5D0E3" points="134,105 140.305,111.918 143,108 "/>
<polygon fill="#813E21" points="113,58 109.891,66.254 118,59 "/>
<polygon fill="#7B4523" points="108.227,67.73 105,79 116,76 "/>
<polygon fill="#A5B1AF" points="110.355,174.164 105,190 117,182 "/>
<polygon fill="#DFE5E1" points="122.895,149.918 112.816,150.723 122.957,158.289 "/>
<polygon fill="#894B22" points="108.227,67.73 116,76 118,73 "/>
<polygon fill="#884825" points="109.891,66.254 108.227,67.73 118,73 "/>
<polygon fill="#A8643D" points="112,52 113,58 118,51 "/>
<polygon fill="#879FAB" points="125.281,122.41 116.875,141.648 130.004,128.676 "/>
<polygon fill="#728186" points="104.992,161.754 118,170 122.957,158.289 "/>
<polygon fill="#E19E74" points="112,47 112,52 118,51 "/>
<polygon fill="#BFCDCD" points="104.992,161.754 110.355,174.164 118,170 "/>
<polygon fill="#7E91A2" points="122.895,149.918 122.957,158.289 134.148,159.621 "/>
<polygon fill="#707E81" points="117,182 105,190 123,192 "/>
<polygon fill="#825534" points="121,23 121.953,33.809 126,34 "/>
<polygon fill="#86715C" points="114,95 122,99 124,91 "/>
<polygon fill="#B58257" points="121,16 108,19 121,23 "/>
<polygon fill="#758994" points="104,102 107.254,114.172 119.172,109.02 "/>
<polygon fill="#6F6772" points="114,95 104,102 119.172,109.02 "/>
<polygon fill="#8B542D" points="118,73 116,76 120,80 "/>
<polygon fill="#88522E" points="116,76 105,79 120,80 "/>
<polygon fill="#4A5E65" points="122,99 125.313,109.797 126,99 "/>
<polygon fill="#BC8F68" points="108,19 106,28 121,23 "/>
<polygon fill="#A5754D" points="121,23 106,28 121.953,33.809 "/>
<polygon fill="#903A17" points="120,45 118,51 121.594,47.719 "/>
<polygon fill="#798385" points="166.656,166.004 159.836,166.98 169.125,171.871 "/>
<polygon fill="#5B9B83" points="97,0 107,9 121,16 "/>
<polygon fill="#CFA992" points="107,9 108,19 121,16 "/>
<polygon fill="#666865" points="124,91 122,99 126,99 "/>
<polygon fill="#3F5260" points="105,190 97,194 123,192 "/>
<polygon fill="#AC7650" points="106,28 106,32 121.953,33.809 "/>
<polygon fill="#A2724A" points="106,32 116,39 121.953,33.809 "/>
<polygon fill="#658498" points="119.172,109.02 125.281,122.41 125.313,109.797 "/>
<polygon fill="#3A3F45" points="169.125,171.871 179,177 181,173 "/>
<polygon fill="#798C93" points="115.82,143.645 112.816,150.723 122.895,149.918 "/>
<polygon fill="#9A603B" points="121,85 114,95 124,91 "/>
<polygon fill="#556972" points="122,99 119.172,109.02 125.313,109.797 "/>
<polygon fill="#84959D" points="116.875,141.648 115.82,143.645 122.895,149.918 "/>
<polygon fill="#AFCCDE" points="112.816,150.723 104.992,161.754 122.957,158.289 "/>
<polygon fill="#AF5C3A" points="121.594,47.719 118,51 124,52 "/>
<polygon fill="#C47D5D" points="118,51 118,59 124,52 "/>
<polygon fill="#33AB87" points="118,73 132,85 142,72 "/>
<polygon fill="#35A889" points="124,91 126,99 132,85 "/>
<polygon fill="#365567" points="140.852,161.941 134.148,159.621 144.086,168.113 "/>
<polygon fill="#3C617C" points="134.148,159.621 140.852,161.941 141.289,155.023 "/>
<polygon fill="#64849B" points="107.352,133.687 116.875,141.648 125.281,122.41 "/>
<polygon fill="#ACC8CC" points="132.832,133.539 116.875,141.648 135.961,142.836 "/>
<polygon fill="#779097" points="107.254,114.172 107.352,133.687 125.281,122.41 "/>
<polygon fill="#4E6F78" points="119.172,109.02 107.254,114.172 125.281,122.41 "/>
<polygon fill="#A84526" points="121.594,47.719 124,52 126,34 "/>
<polygon fill="#84A2AD" points="147.348,172.617 139,191 154,194 "/>
<polygon fill="#37AE8E" points="132,85 126,99 134,105 "/>
<polygon fill="#C4D0DC" points="138.875,116.395 133.348,119.18 139.055,133.406 "/>
<polygon fill="#B2C8D5" points="140.305,111.918 147.566,120.953 151.332,113.32 "/>
<polygon fill="#37A985" points="120,80 121,85 132,85 "/>
<polygon fill="#37AF8B" points="121,85 124,91 132,85 "/>
<polygon fill="#3AAB80" points="118,73 120,80 132,85 "/>
<polygon fill="#ADBAC0" points="156.895,176.32 161,190 165,182 "/>
<polygon fill="#2DAE85" points="126,34 124,52 144,31 "/>
<polygon fill="#809DAF" points="130.004,128.676 116.875,141.648 132.832,133.539 "/>
<polygon fill="#98B8C5" points="116.875,141.648 122.895,149.918 135.961,142.836 "/>
<polygon fill="#55686F" points="135.961,142.836 138.754,142.637 139.055,133.406 "/>
<polygon fill="#688799" points="125.281,122.41 130.004,128.676 133.348,119.18 "/>
<polygon fill="#96A5B8" points="125.313,109.797 125.281,122.41 133.348,119.18 "/>
<polygon fill="#5B6C7E" points="126,99 125.313,109.797 134,105 "/>
<polygon fill="#D2E7EC" points="132.832,133.539 135.961,142.836 139.055,133.406 "/>
<polygon fill="#7A9BA2" points="122.957,158.289 118,170 134.148,159.621 "/>
<polygon fill="#384E5B" points="122.895,149.918 134.148,159.621 135.961,142.836 "/>
<polygon fill="#7A8E99" points="134,105 125.313,109.797 138.219,112.66 "/>
<polygon fill="#7590A3" points="139.055,133.406 138.754,142.637 139.262,142.73 "/>
<polygon fill="#85949B" points="138.754,142.637 135.961,142.836 139.262,142.73 "/>
<polygon fill="#8FA7B3" points="125.313,109.797 133.348,119.18 138.219,112.66 "/>
<polygon fill="#34A181" points="121,23 126,34 144,31 "/>
<polygon fill="#ABC7D3" points="138.219,112.66 133.348,119.18 138.875,116.395 "/>
<polygon fill="#7596A9" points="130,188 123,192 139,191 "/>
<polygon fill="#C8DAE4" points="143,108 140.305,111.918 151.332,113.32 "/>
<polygon fill="#2A434A" points="147.566,120.953 139.055,133.406 155.125,125.516 "/>
<polygon fill="#94ABB1" points="133.348,119.18 130.004,128.676 139.055,133.406 "/>
<polygon fill="#9DB3C1" points="138.219,112.66 138.875,116.395 140.305,111.918 "/>
<polygon fill="#B8CDD0" points="130.004,128.676 132.832,133.539 139.055,133.406 "/>
<polygon fill="#319A79" points="121,16 121,23 144,31 "/>
<polygon fill="#B1BFC2" points="166.164,135.805 167.238,137.984 170,124 "/>
<polygon fill="#33AB7E" points="124,52 118,59 142,72 "/>
<polygon fill="#9AB1C1" points="134,105 138.219,112.66 140.305,111.918 "/>
<polygon fill="#384148" points="165,182 173,194 174,184 "/>
<polygon fill="#5E6D72" points="135.961,142.836 134.148,159.621 141.289,155.023 "/>
<polygon fill="#65797A" points="139.262,142.73 135.961,142.836 141.289,155.023 "/>
<polygon fill="#38AC87" points="118,59 118,73 142,72 "/>
<polygon fill="#8FA3AC" points="138.875,116.395 139.055,133.406 147.566,120.953 "/>
<polygon fill="#6F8998" points="139,191 123,192 154,194 "/>
<polygon fill="#DFEBEB" points="144.086,168.113 130,188 147.348,172.617 "/>
<polygon fill="#C3DBDF" points="130,188 139,191 147.348,172.617 "/>
<polygon fill="#36AE8A" points="142,72 132,85 145.746,103.102 "/>
<polygon fill="#192221" points="134.148,159.621 118,170 144.086,168.113 "/>
<polygon fill="#7A8C8E" points="118,170 130,188 144.086,168.113 "/>
<polygon fill="#2C9B7A" points="194,0 164,57 194,97 "/>
<polygon fill="#6B8792" points="139.262,142.73 141.289,155.023 144.824,151.535 "/>
<polygon fill="#35AF8A" points="132,85 134,105 145.746,103.102 "/>
<polygon fill="#3E5259" points="134,105 143,108 145.746,103.102 "/>
<polygon fill="#97B0AD" points="144.824,151.535 141.289,155.023 149.211,160.672 "/>
<polygon fill="#CBEEF4" points="140.305,111.918 138.875,116.395 147.566,120.953 "/>
<polygon fill="#395060" points="141.289,155.023 140.852,161.941 149.211,160.672 "/>
<polygon fill="#A7BEC4" points="144.086,168.113 147.348,172.617 149.211,160.672 "/>
<polygon fill="#47595D" points="140.852,161.941 144.086,168.113 149.211,160.672 "/>
<polygon fill="#88C4B8" points="145.746,103.102 143,108 151.332,113.32 "/>
<polygon fill="#C4D4E1" points="151.332,113.32 147.566,120.953 155.125,125.516 "/>
<polygon fill="#929FA7" points="154.043,154.84 156.414,160.148 165.977,150.227 "/>
<polygon fill="#738287" points="144.824,151.535 149.211,160.672 154.043,154.84 "/>
<polygon fill="#BCCFD5" points="163.621,144.113 162.254,144.148 165.977,150.227 "/>
<polygon fill="#687C85" points="156.895,176.32 154,194 161,190 "/>
<polygon fill="#9AB1C1" points="145.746,103.102 151.332,113.32 154.75,106.25 "/>
<polygon fill="#565F5E" points="165,182 161,190 173,194 "/>
<polygon fill="#54756A" points="176,143 168.809,150.277 177,150 "/>
<polygon fill="#2DA17E" points="164,57 142,72 171,80 "/>
<polygon fill="#61787E" points="156.414,160.148 149.211,160.672 159.836,166.98 "/>
<polygon fill="#3C4D54" points="154.043,154.84 149.211,160.672 156.414,160.148 "/>
<polygon fill="#AFC0C7" points="147.348,172.617 154,194 156.895,176.32 "/>
<polygon fill="#91AAC0" points="149.211,160.672 147.348,172.617 159.836,166.98 "/>
<polygon fill="#A7B8C0" points="155.125,125.516 156.633,125.238 159.395,123.43 "/>
<polygon fill="#C8D6D9" points="147.348,172.617 156.895,176.32 159.836,166.98 "/>
<polygon fill="#627480" points="165,182 174,184 175,180 "/>
<polygon fill="#C0DFE4" points="154.75,106.25 151.332,113.32 159.395,123.43 "/>
<polygon fill="#B7C1CD" points="151.332,113.32 155.125,125.516 159.395,123.43 "/>
<polygon fill="#5D6E78" points="162.254,144.148 154.043,154.84 165.977,150.227 "/>
<polygon fill="#9DB5B9" points="139.055,133.406 139.262,142.73 162.254,144.148 "/>
<polygon fill="#769BB6" points="155.125,125.516 139.055,133.406 162.254,144.148 "/>
<polygon fill="#9DADBC" points="139.262,142.73 144.824,151.535 162.254,144.148 "/>
<polygon fill="#96A9B0" points="144.824,151.535 154.043,154.84 162.254,144.148 "/>
<polygon fill="#37AD8A" points="145.746,103.102 154.75,106.25 171,80 "/>
<polygon fill="#405C68" points="156.414,160.148 159.836,166.98 166.656,166.004 "/>
<polygon fill="#424441" points="166.656,166.004 169.125,171.871 170.172,161.871 "/>
<polygon fill="#35AB88" points="124,52 142,72 164,57 "/>
<polygon fill="#2DA380" points="144,31 124,52 164,57 "/>
<polygon fill="#2B9A79" points="144,31 164,57 169,10 "/>
<polygon fill="#627480" points="159.836,166.98 156.895,176.32 169.125,171.871 "/>
<polygon fill="#2C9B7A" points="121,16 144,31 169,10 "/>
<polygon fill="#758FA6" points="159.395,123.43 156.633,125.238 166.164,135.805 "/>
<polygon fill="#90AABB" points="156.633,125.238 155.125,125.516 166.164,135.805 "/>
<polygon fill="#748AA1" points="155.125,125.516 162.254,144.148 166.164,135.805 "/>
<polygon fill="#ACB3BB" points="156.895,176.32 165,182 169.125,171.871 "/>
<polygon fill="#329F80" points="97,0 121,16 169,10 "/>
<polygon fill="#516161" points="166.164,135.805 162.254,144.148 167.238,137.984 "/>
<polygon fill="#36AC89" points="142,72 145.746,103.102 171,80 "/>
<polygon fill="#DAE4EE" points="159.395,123.43 166.164,135.805 170,124 "/>
<polygon fill="#7B8D8D" points="162.254,144.148 163.621,144.113 167.238,137.984 "/>
<polygon fill="#2F4048" points="163.621,144.113 165.977,150.227 168.809,150.277 "/>
<polygon fill="#57625E" points="169.125,171.871 165,182 175,180 "/>
<polygon fill="#627480" points="170.172,161.871 180,167 183,164 "/>
<polygon fill="#3E5259" points="154.75,106.25 159.395,123.43 170,124 "/>
<polygon fill="#59776D" points="170.172,161.871 169.125,171.871 180,167 "/>
<polygon fill="#59626B" points="168.809,150.277 165.977,150.227 170.172,161.871 "/>
<polygon fill="#607C8A" points="165.977,150.227 156.414,160.148 170.172,161.871 "/>
<polygon fill="#687E8B" points="156.414,160.148 166.656,166.004 170.172,161.871 "/>
<polygon fill="#5D6E78" points="177,150 170.172,161.871 183,164 "/>
<polygon fill="#2CA27F" points="176,143 183,164 194,97 "/>
<polygon fill="#627480" points="169.125,171.871 175,180 179,177 "/>
<polygon fill="#384148" points="161,190 154,194 173,194 "/>
<polygon fill="#30A683" points="178,113 176,143 194,97 "/>
<polygon fill="#192221" points="180,167 169.125,171.871 181,173 "/>
<polygon fill="#3BAD8B" points="170,124 176,143 178,113 "/>
<polygon fill="#3A3F45" points="168.809,150.277 170.172,161.871 177,150 "/>
<polygon fill="#2A9676" points="169,10 164,57 194,0 "/>
<polygon fill="#394B55" points="167.238,137.984 163.621,144.113 176,143 "/>
<polygon fill="#929CA5" points="163.621,144.113 168.809,150.277 176,143 "/>
<polygon fill="#496165" points="170,124 167.238,137.984 176,143 "/>
<polygon fill="#32A683" points="171,80 154.75,106.25 178,113 "/>
<polygon fill="#32AF8D" points="154.75,106.25 170,124 178,113 "/>
<polygon fill="#2DA581" points="175,180 174,184 179,177 "/>
</svg>
